<svg width="76" height="64" viewBox="0 0 76 64" fill="none" xmlns="http://www.w3.org/2000/svg">
<path fill-rule="evenodd" clip-rule="evenodd" d="M40.4902 8.08502C42.3284 7.69061 44.2355 7.48311 46.1909 7.48311C61.1309 7.48311 73.261 19.6132 73.261 34.5532C73.261 49.494 61.1309 61.624 46.1909 61.624C31.2501 61.624 19.1201 49.494 19.1201 34.5532C19.1201 30.2068 20.1465 26.0971 21.9712 22.4556C22.265 21.8695 22.0274 21.1552 21.4414 20.8613C20.8545 20.5675 20.1401 20.8051 19.8471 21.3912C17.8616 25.3535 16.7441 29.8242 16.7441 34.5532C16.7441 50.8055 29.9386 64 46.1909 64C62.4425 64 75.6369 50.8055 75.6369 34.5532C75.6369 18.3016 62.4425 5.10715 46.1909 5.10715C44.0644 5.10715 41.9902 5.33287 39.9921 5.76213C39.3505 5.89993 38.9419 6.53194 39.0797 7.17265C39.2175 7.81416 39.8495 8.22283 40.4902 8.08502Z" fill="#00978A"/>
<path fill-rule="evenodd" clip-rule="evenodd" d="M38.9628 0.760594C38.7434 0.191948 38.1297 -0.11851 37.542 0.042263C26.7417 2.98924 19.164 9.16039 15.0132 18.7561C14.7748 19.3065 14.9847 19.9488 15.5018 20.2522L24.9977 25.8214C25.2916 25.994 25.6464 26.0313 25.9703 25.9244C26.2942 25.8174 26.5572 25.5767 26.691 25.263C29.4835 18.7228 34.6829 14.5934 42.149 12.7275C42.4792 12.6443 42.758 12.4242 42.9148 12.1216C43.0716 11.8199 43.0914 11.4651 42.9687 11.1475L38.9628 0.760594ZM37.1373 2.62889L40.2775 10.7729C33.1734 12.8495 28.0817 16.9417 25.0658 23.1065L17.6251 18.7426C21.4275 10.6691 27.997 5.3652 37.1373 2.62889Z" fill="#00978A"/>
<path fill-rule="evenodd" clip-rule="evenodd" d="M24.251 0H14.8581C14.2023 0 13.6701 0.532215 13.6701 1.18798C13.6701 1.84374 14.2023 2.37596 14.8581 2.37596H24.251C24.9068 2.37596 25.439 1.84374 25.439 1.18798C25.439 0.532215 24.9068 0 24.251 0Z" fill="#00978A"/>
<path fill-rule="evenodd" clip-rule="evenodd" d="M16.8212 6.41941H7.4283C6.77253 6.41941 6.24032 6.95163 6.24032 7.60739C6.24032 8.26316 6.77253 8.79537 7.4283 8.79537H16.8212C17.477 8.79537 18.0092 8.26316 18.0092 7.60739C18.0092 6.95163 17.477 6.41941 16.8212 6.41941Z" fill="#00978A"/>
<path fill-rule="evenodd" clip-rule="evenodd" d="M12.0607 12.8485H1.55028C0.894519 12.8485 0.362305 13.3807 0.362305 14.0365C0.362305 14.6922 0.894519 15.2245 1.55028 15.2245H12.0607C12.7165 15.2245 13.2487 14.6922 13.2487 14.0365C13.2487 13.3807 12.7165 12.8485 12.0607 12.8485Z" fill="#00978A"/>
<path fill-rule="evenodd" clip-rule="evenodd" d="M46.8052 20.2673L60.0559 10.5813C60.5858 10.194 60.7014 9.45035 60.3141 8.92131C59.9268 8.39147 59.1832 8.27584 58.6541 8.66312L45.4026 18.3491C44.8736 18.7356 44.7579 19.4793 45.1452 20.0091C45.5317 20.5382 46.2754 20.6538 46.8052 20.2673Z" fill="#00978A"/>
<path fill-rule="evenodd" clip-rule="evenodd" d="M59.2227 28.8716L73.7857 35.6391C74.3805 35.9155 75.0869 35.6565 75.3633 35.0625C75.6397 34.4678 75.3816 33.7605 74.7868 33.4841L60.2237 26.7166C59.6298 26.4402 58.9225 26.6992 58.6461 27.2932C58.3697 27.8879 58.6279 28.5952 59.2227 28.8716Z" fill="#00978A"/>
<path fill-rule="evenodd" clip-rule="evenodd" d="M56.4201 44.6351L55.115 60.8589C55.0619 61.5123 55.5498 62.0857 56.2039 62.1387C56.8573 62.191 57.4307 61.7032 57.483 61.0498L58.789 44.8252C58.8412 44.1718 58.3534 43.5984 57.7 43.5461C57.0466 43.493 56.4732 43.9809 56.4201 44.6351Z" fill="#00978A"/>
<path fill-rule="evenodd" clip-rule="evenodd" d="M46.1666 48.8979L33.0031 59.0899C32.4843 59.4907 32.3893 60.2375 32.7908 60.7563C33.1923 61.275 33.9392 61.37 34.4571 60.9685L47.6215 50.7765C48.1403 50.3749 48.2353 49.6289 47.8338 49.1101C47.4322 48.5914 46.6854 48.4963 46.1666 48.8979Z" fill="#00978A"/>
<path fill-rule="evenodd" clip-rule="evenodd" d="M34.8186 43.6107L19.2941 42.079C18.6415 42.0149 18.0594 42.4924 17.9952 43.145C17.9303 43.7976 18.4078 44.3797 19.0604 44.4439L34.5849 45.9756C35.2375 46.0397 35.8196 45.5622 35.8838 44.9096C35.9487 44.257 35.4712 43.6757 34.8186 43.6107Z" fill="#00978A"/>
<path fill-rule="evenodd" clip-rule="evenodd" d="M31.7617 33.7682L26.5172 28.5022C26.0539 28.0374 25.3015 28.0358 24.8366 28.4991C24.3725 28.9616 24.3709 29.714 24.8334 30.1789L30.0787 35.4448C30.5413 35.9097 31.2944 35.9105 31.7585 35.448C32.2234 34.9854 32.225 34.2323 31.7617 33.7682Z" fill="#00978A"/>
<path fill-rule="evenodd" clip-rule="evenodd" d="M46.2036 18.0939C37.1172 18.0939 29.7406 25.4705 29.7406 34.5561C29.7406 43.6426 37.1172 51.0191 46.2036 51.0191C55.2893 51.0191 62.6658 43.6426 62.6658 34.5561C62.6658 25.4705 55.2893 18.0939 46.2036 18.0939ZM46.2036 20.4699C53.9777 20.4699 60.2899 26.782 60.2899 34.5561C60.2899 42.3311 53.9777 48.6432 46.2036 48.6432C38.4287 48.6432 32.1166 42.3311 32.1166 34.5561C32.1166 26.782 38.4287 20.4699 46.2036 20.4699Z" fill="#00978A"/>
<path fill-rule="evenodd" clip-rule="evenodd" d="M41.1136 26.6058C39.2826 26.6058 37.796 28.0923 37.796 29.9234C37.796 31.7545 39.2826 33.241 41.1136 33.241C42.9447 33.241 44.4313 31.7545 44.4313 29.9234C44.4313 28.0923 42.9447 26.6058 41.1136 26.6058ZM41.1136 28.9817C41.6332 28.9817 42.0553 29.4031 42.0553 29.9234C42.0553 30.4429 41.6332 30.8651 41.1136 30.8651C40.5933 30.8651 40.172 30.4429 40.172 29.9234C40.172 29.4031 40.5933 28.9817 41.1136 28.9817Z" fill="#00978A"/>
<path fill-rule="evenodd" clip-rule="evenodd" d="M41.1136 35.8868C39.2826 35.8868 37.796 37.3734 37.796 39.2045C37.796 41.0355 39.2826 42.5221 41.1136 42.5221C42.9447 42.5221 44.4313 41.0355 44.4313 39.2045C44.4313 37.3734 42.9447 35.8868 41.1136 35.8868ZM41.1136 38.2628C41.6332 38.2628 42.0553 38.6849 42.0553 39.2045C42.0553 39.724 41.6332 40.1461 41.1136 40.1461C40.5933 40.1461 40.172 39.724 40.172 39.2045C40.172 38.6849 40.5933 38.2628 41.1136 38.2628Z" fill="#00978A"/>
<path fill-rule="evenodd" clip-rule="evenodd" d="M50.9965 26.6058C49.1654 26.6058 47.6789 28.0924 47.6789 29.9235C47.6789 31.7545 49.1654 33.2411 50.9965 33.2411C52.8276 33.2411 54.3149 31.7545 54.3149 29.9235C54.3149 28.0924 52.8276 26.6058 50.9965 26.6058ZM50.9965 28.9818C51.5168 28.9818 51.939 29.4031 51.939 29.9235C51.939 30.443 51.5168 30.8651 50.9965 30.8651C50.477 30.8651 50.0548 30.443 50.0548 29.9235C50.0548 29.4031 50.477 28.9818 50.9965 28.9818Z" fill="#00978A"/>
<path fill-rule="evenodd" clip-rule="evenodd" d="M50.9965 35.8863C49.1654 35.8863 47.6789 37.3728 47.6789 39.2039C47.6789 41.035 49.1654 42.5215 50.9965 42.5215C52.8276 42.5215 54.3149 41.035 54.3149 39.2039C54.3149 37.3728 52.8276 35.8863 50.9965 35.8863ZM50.9965 38.2622C51.5168 38.2622 51.939 38.6844 51.939 39.2039C51.939 39.7234 51.5168 40.1456 50.9965 40.1456C50.477 40.1456 50.0548 39.7234 50.0548 39.2039C50.0548 38.6844 50.477 38.2622 50.9965 38.2622Z" fill="#00978A"/>
</svg>
