<svg width="28" height="28" viewBox="0 0 28 28" fill="none" xmlns="http://www.w3.org/2000/svg">
<g opacity="0.6" clip-path="url(#clip0_2506_12290)">
<path d="M3.87451 5C3.87451 4.70163 3.99304 4.41548 4.20402 4.2045C4.41499 3.99353 4.70114 3.875 4.99951 3.875H9.49951C9.79788 3.875 10.084 3.99353 10.295 4.2045C10.506 4.41548 10.6245 4.70163 10.6245 5V9.5C10.6245 9.79837 10.506 10.0845 10.295 10.2955C10.084 10.5065 9.79788 10.625 9.49951 10.625H4.99951C4.70114 10.625 4.41499 10.5065 4.20402 10.2955C3.99304 10.0845 3.87451 9.79837 3.87451 9.5V5Z" stroke="#061837" stroke-width="1.5" stroke-linecap="round" stroke-linejoin="round"/>
<path d="M17.3745 18.5C17.3745 18.2016 17.493 17.9155 17.704 17.7045C17.915 17.4935 18.2011 17.375 18.4995 17.375H22.9995C23.2979 17.375 23.584 17.4935 23.795 17.7045C24.006 17.9155 24.1245 18.2016 24.1245 18.5V23C24.1245 23.2984 24.006 23.5845 23.795 23.7955C23.584 24.0065 23.2979 24.125 22.9995 24.125H18.4995C18.2011 24.125 17.915 24.0065 17.704 23.7955C17.493 23.5845 17.3745 23.2984 17.3745 23V18.5Z" stroke="#061837" stroke-width="1.5" stroke-linecap="round" stroke-linejoin="round"/>
<path d="M24.1245 12.875V9.5C24.1245 8.90326 23.8875 8.33097 23.4655 7.90901C23.0435 7.48705 22.4712 7.25 21.8745 7.25H15.1245M15.1245 7.25L18.4995 10.625M15.1245 7.25L18.4995 3.875" stroke="#061837" stroke-width="1.5" stroke-linecap="round" stroke-linejoin="round"/>
<path d="M3.87451 15.125V18.5C3.87451 19.0967 4.11156 19.669 4.53352 20.091C4.95548 20.5129 5.52777 20.75 6.12451 20.75H12.8745M12.8745 20.75L9.49951 17.375M12.8745 20.75L9.49951 24.125" stroke="#061837" stroke-width="1.5" stroke-linecap="round" stroke-linejoin="round"/>
</g>
<defs>
<clipPath id="clip0_2506_12290">
<rect width="27" height="27" fill="white" transform="translate(0.499512 0.5)"/>
</clipPath>
</defs>
</svg>
