 <svg width="29" height="29" viewBox="0 0 29 29" fill="none" xmlns="http://www.w3.org/2000/svg">
<path fill-rule="evenodd" clip-rule="evenodd" d="M2.62579 1.31335C1.9017 1.31442 1.31342 1.9027 1.31235 2.6268L1.31344 11.7491C1.31344 12.793 1.72736 13.7952 2.46644 14.5343L15.0437 27.1115C15.8127 27.8805 17.0587 27.8795 17.8278 27.1104L27.1094 17.8288C27.8784 17.0598 27.8795 15.8137 27.1105 15.0447L14.5332 2.46747C13.7942 1.7284 12.792 1.31445 11.7481 1.31447L2.62579 1.31335ZM0.00106762 2.6268C0.00106762 1.17647 1.17547 0.00207134 2.62579 0.00207134L11.7481 0.000976562C13.1407 0.000976562 14.4755 0.555004 15.4606 1.54007L28.0378 14.1173C29.3192 15.3987 29.3192 17.4758 28.0378 18.7571L18.7562 28.0388C17.4748 29.3201 15.3977 29.3201 14.1163 28.0388L1.53909 15.4616C0.554001 14.4765 -2.7352e-05 13.1416 1.01136e-09 11.7491L0.00106762 2.6268ZM4.60137 4.60234C3.9607 5.24301 3.96068 6.28264 4.60137 6.92333C5.24203 7.56399 6.28166 7.56402 6.92235 6.92333C7.56304 6.28264 7.56304 5.24303 6.92235 4.60234C6.28169 3.96168 5.24206 3.96165 4.60137 4.60234ZM3.67298 7.85171C2.51999 6.69872 2.52106 4.82802 3.67405 3.67503C4.82704 2.52204 6.69775 2.52097 7.85074 3.67396C9.00373 4.82695 9.00373 6.69872 7.85074 7.85171C6.69775 9.00471 4.82597 9.0047 3.67298 7.85171ZM9.05307 14.0746C8.51722 14.6105 8.51719 15.479 9.05307 16.0149C9.58894 16.5507 10.4574 16.5507 10.9933 16.0149C11.5292 15.479 11.5292 14.6105 10.9933 14.0746C10.4574 13.5388 9.58894 13.5388 9.05307 14.0746ZM8.12469 16.9433C7.07651 15.8951 7.07651 14.1944 8.12469 13.1463C9.17286 12.0981 10.8735 12.0981 11.9217 13.1463C12.9699 14.1944 12.9699 15.8951 11.9217 16.9433C10.8735 17.9914 9.17286 17.9914 8.12469 16.9433ZM15.0438 7.24968C15.4064 7.25075 15.7005 7.54489 15.7005 7.90639L15.7005 22.1829C15.6994 22.5455 15.4064 22.8386 15.0438 22.8396C14.6812 22.8385 14.3881 22.5455 14.3871 22.1829L14.3871 7.90639C14.3881 7.54381 14.6812 7.25074 15.0438 7.24968ZM19.0942 14.0745C18.5583 14.6104 18.5583 15.4789 19.0942 16.0148C19.63 16.5506 20.4985 16.5506 21.0344 16.0148C21.5703 15.4789 21.5703 14.6104 21.0344 14.0745C20.4985 13.5387 19.63 13.5387 19.0942 14.0745ZM18.1658 16.9431C17.1176 15.895 17.1176 14.1943 18.1658 13.1462C19.2139 12.098 20.9146 12.098 21.9628 13.1462C23.0109 14.1943 23.0109 15.895 21.9628 16.9431C20.9146 17.9913 19.2139 17.9913 18.1658 16.9431Z" fill="black"/>
</svg>
