<svg width="17" height="12" viewBox="0 0 17 12" fill="none" xmlns="http://www.w3.org/2000/svg">
<path d="M2.5042 6.15126H6.43698C6.62185 6.15126 6.77311 6 6.77311 5.81513V0.336134C6.77311 0.151261 6.62185 0 6.43698 0H2.5042C2.31933 0 2.16807 0.151261 2.16807 0.336134V5.81513C2.16807 6 2.31933 6.15126 2.5042 6.15126ZM2.84034 0.672269H6.10084V5.47899H2.84034V0.672269Z" fill="#1599FF"/>
<path d="M3.59664 1.71429H5.2437C5.42857 1.71429 5.57983 1.56303 5.57983 1.37815C5.57983 1.19328 5.42857 1.04202 5.2437 1.04202H3.59664C3.41176 1.04202 3.2605 1.19328 3.2605 1.37815C3.2605 1.56303 3.41176 1.71429 3.59664 1.71429Z" fill="#1599FF"/>
<path d="M3.59664 2.72269H5.2437C5.42857 2.72269 5.57983 2.57143 5.57983 2.38655C5.57983 2.20168 5.42857 2.05042 5.2437 2.05042H3.59664C3.41176 2.05042 3.2605 2.20168 3.2605 2.38655C3.2605 2.57143 3.41176 2.72269 3.59664 2.72269Z" fill="#1599FF"/>
<path d="M5.07563 3.19328L4.16807 4.30252L3.81513 4.01681C3.66387 3.89916 3.46218 3.91597 3.34454 4.06723C3.22689 4.21849 3.2437 4.42017 3.39496 4.53782L4 5.04202C4.06723 5.09244 4.13445 5.12605 4.21849 5.12605C4.31933 5.12605 4.42017 5.09244 4.47059 5.0084L5.59664 3.64706C5.71429 3.4958 5.69748 3.29412 5.54622 3.17647C5.39496 3.02521 5.19328 3.04202 5.07563 3.19328Z" fill="#1599FF"/>
<path d="M16.7563 7.63025C16.4874 6.21849 15.4622 5.84874 14.1513 5.54622C12.9244 5.2437 11.8992 4.70588 10.9244 4.20168C9.76471 3.59664 8.65546 3.0084 7.27731 2.80672V3.47899C8.5042 3.66387 9.52941 4.21849 10.605 4.77311C11.6303 5.31093 12.6891 5.86555 13.9832 6.18487C15.4622 6.53782 15.916 6.87395 16.084 7.7479C16.2017 8.33614 16.0336 8.94118 15.6471 9.34454C15.4958 9.51261 15.3445 9.59664 15.2269 9.59664H15.1765C15.0084 8.62185 14.1681 7.86555 13.1429 7.86555C12.1176 7.86555 11.2773 8.62185 11.1092 9.59664H5.59664C5.42857 8.62185 4.58824 7.86555 3.56303 7.86555C2.63866 7.86555 1.84874 8.47059 1.59664 9.31093C1.04202 8.97479 0.672269 8.36975 0.672269 7.68067V5.96639C0.672269 5.14286 1.05882 4.42017 1.66387 3.94958V3.14286C0.672269 3.69748 0 4.7563 0 5.96639V7.68067C0 8.72269 0.621849 9.61345 1.4958 10.0336C1.54622 11.1261 2.45378 12 3.56303 12C4.58824 12 5.42857 11.2437 5.59664 10.2689H11.126C11.2941 11.2437 12.1345 12 13.1597 12C14.1849 12 15.0252 11.2437 15.1933 10.2689H15.2437C15.5462 10.2689 15.8487 10.1176 16.1513 9.81513C16.6891 9.2605 16.9076 8.43698 16.7563 7.63025ZM3.56303 11.3277C2.78992 11.3277 2.16807 10.7059 2.16807 9.93277C2.16807 9.15967 2.78992 8.53782 3.56303 8.53782C4.33613 8.53782 4.95798 9.15967 4.95798 9.93277C4.95798 10.7059 4.33613 11.3277 3.56303 11.3277ZM13.1597 11.3277C12.3866 11.3277 11.7647 10.7059 11.7647 9.93277C11.7647 9.15967 12.3866 8.53782 13.1597 8.53782C13.9328 8.53782 14.5546 9.15967 14.5546 9.93277C14.5546 10.7059 13.9328 11.3277 13.1597 11.3277Z" fill="#1599FF"/>
</svg>
