<svg width="23" height="24" viewBox="0 0 23 24" fill="none" xmlns="http://www.w3.org/2000/svg">
<path d="M4.9275 2.66774C4.92706 3.75344 4.33422 4.73043 3.42853 5.13802C2.52285 5.54563 1.48517 5.30244 0.804805 4.52315C0.124441 3.74384 -0.0627345 2.58404 0.331525 1.59065C0.725797 0.597259 1.62277 -0.0313639 2.5995 0.00120788C3.89679 0.0444724 4.92809 1.22573 4.9275 2.66774ZM4.9995 7.30752H0.199501V24H4.9995V7.30752ZM12.5835 7.30752H7.8075V24H12.5355V15.2404C12.5355 10.3607 18.2595 9.90735 18.2595 15.2404V24H22.9995V13.4272C22.9995 5.20095 14.5275 5.50761 12.5355 9.54737L12.5835 7.30752Z" fill="white"/>
</svg>
