<svg width="23" height="26" viewBox="0 0 23 26" fill="none" xmlns="http://www.w3.org/2000/svg">
<path d="M11.4686 22.6155L17.3915 16.6925C20.6627 13.4214 20.6627 8.11776 17.3915 4.8466C14.1204 1.57544 8.81677 1.57544 5.54561 4.8466C2.27445 8.11776 2.27445 13.4214 5.54561 16.6925L11.4686 22.6155ZM11.4686 26L3.85334 18.3848C-0.352439 14.179 -0.352439 7.36011 3.85334 3.15433C8.05912 -1.05144 14.878 -1.05144 19.0838 3.15433C23.2896 7.36011 23.2896 14.179 19.0838 18.3848L11.4686 26ZM11.4686 13.1628C12.7904 13.1628 13.8618 12.0913 13.8618 10.7696C13.8618 9.44781 12.7904 8.37633 11.4686 8.37633C10.1468 8.37633 9.07533 9.44781 9.07533 10.7696C9.07533 12.0913 10.1468 13.1628 11.4686 13.1628ZM11.4686 15.556C8.82507 15.556 6.6821 13.413 6.6821 10.7696C6.6821 8.12607 8.82507 5.98309 11.4686 5.98309C14.112 5.98309 16.255 8.12607 16.255 10.7696C16.255 13.413 14.112 15.556 11.4686 15.556Z" fill="white"/>
</svg>
