<svg width="45" height="46" viewBox="0 0 45 46" fill="currentColor" xmlns="http://www.w3.org/2000/svg">
<rect x="44.5" y="44.8639" width="43.73" height="43.7279" rx="21.8639" transform="rotate(-180 44.5 44.8639)" fill="white"/>
<rect x="44.5" y="44.8639" width="43.73" height="43.7279" rx="21.8639" transform="rotate(-180 44.5 44.8639)" stroke="#061837"/>
<path d="M18.8644 13.17C18.5938 12.924 18.1756 12.9486 17.9296 13.2192C17.6836 13.4898 17.7082 13.9081 17.9788 14.1541L27.4992 22.7643C27.7452 22.9857 27.7452 23.3055 27.4992 23.5269L17.9788 31.8419C17.7082 32.0879 17.6836 32.5061 17.905 32.7767C18.151 33.0473 18.5692 33.0719 18.8398 32.8505L28.3603 24.5109C29.1967 23.7729 29.2213 22.5428 28.3849 21.7802L18.8644 13.17Z" fill="#061837"/>
</svg>
