<svg width="21" height="22" viewBox="0 0 21 22" fill="none" xmlns="http://www.w3.org/2000/svg">
<path d="M10.4307 22C4.90781 22 0.430664 17.5228 0.430664 12C0.430664 6.47715 4.90781 2 10.4307 2C15.9535 2 20.4307 6.47715 20.4307 12C20.4307 17.5228 15.9535 22 10.4307 22ZM8.14068 19.6674C7.17809 17.6259 6.58798 15.3742 6.45797 13H2.49255C2.88866 16.1765 5.14705 18.7747 8.14068 19.6674ZM8.46136 13C8.61176 15.4388 9.30846 17.7297 10.4307 19.752C11.5529 17.7297 12.2496 15.4388 12.4 13H8.46136ZM18.3688 13H14.4034C14.2734 15.3742 13.6833 17.6259 12.7207 19.6674C15.7143 18.7747 17.9727 16.1765 18.3688 13ZM2.49255 11H6.45797C6.58798 8.62577 7.17809 6.37407 8.14068 4.33256C5.14705 5.22533 2.88866 7.8235 2.49255 11ZM8.46136 11H12.4C12.2496 8.56122 11.5529 6.27025 10.4307 4.24799C9.30846 6.27025 8.61176 8.56122 8.46136 11ZM12.7207 4.33256C13.6833 6.37407 14.2734 8.62577 14.4034 11H18.3688C17.9727 7.8235 15.7143 5.22533 12.7207 4.33256Z" fill="white"/>
</svg>
