<svg width="21" height="22" viewBox="0 0 21 22" fill="none" xmlns="http://www.w3.org/2000/svg">
<path d="M10.6655 22C5.14268 22 0.665527 17.5228 0.665527 12C0.665527 6.47715 5.14268 2 10.6655 2C16.1883 2 20.6655 6.47715 20.6655 12C20.6655 17.5228 16.1883 22 10.6655 22ZM8.37555 19.6674C7.41296 17.6259 6.82285 15.3742 6.69284 13H2.72742C3.12353 16.1765 5.38192 18.7747 8.37555 19.6674ZM8.69623 13C8.84663 15.4388 9.54333 17.7297 10.6655 19.752C11.7877 17.7297 12.4844 15.4388 12.6348 13H8.69623ZM18.6036 13H14.6382C14.5082 15.3742 13.9181 17.6259 12.9555 19.6674C15.9491 18.7747 18.2075 16.1765 18.6036 13ZM2.72742 11H6.69284C6.82285 8.62577 7.41296 6.37407 8.37555 4.33256C5.38192 5.22533 3.12353 7.8235 2.72742 11ZM8.69623 11H12.6348C12.4844 8.56122 11.7877 6.27025 10.6655 4.24799C9.54333 6.27025 8.84663 8.56122 8.69623 11ZM12.9555 4.33256C13.9181 6.37407 14.5082 8.62577 14.6382 11H18.6036C18.2075 7.8235 15.9491 5.22533 12.9555 4.33256Z" fill="#061837"/>
</svg>
