<svg width="18" height="18" viewBox="0 0 18 18" fill="none" xmlns="http://www.w3.org/2000/svg">
<path d="M6.21737 10.8536H14.6501L16.051 5.24998C16.1704 4.77254 16.6537 4.48177 17.1314 4.59998C17.6108 4.71858 17.9028 5.20388 17.783 5.68297L16.1757 12.112C16.0981 12.4224 15.8192 12.6402 15.4992 12.6402H6.66402L7.11067 14.4268H15.3469C15.8403 14.4268 16.2402 14.8267 16.2402 15.3201C16.2402 15.8135 15.8403 16.2134 15.3469 16.2134V17.1067C15.3469 17.6001 14.947 18 14.4536 18C13.9602 18 13.5603 17.6001 13.5603 17.1067V16.2134H8.2005V17.1067C8.2005 17.6001 7.80055 18 7.3072 18C6.81384 18 6.4139 17.6001 6.4139 17.1067V16.2134H6.26162C5.94162 16.2134 5.66267 15.9956 5.58506 15.6852L2.14392 1.9206H1.05409C0.560738 1.9206 0.160795 1.52065 0.160795 1.0273C0.160795 0.533939 0.56074 0.133995 1.0541 0.133995H2.99297C3.31298 0.133995 3.59192 0.351786 3.66953 0.662239L6.21737 10.8536Z" fill="white"/>
<path d="M10.92 7.10557C10.7112 7.26211 10.4242 7.26211 10.2155 7.10557L7.1732 4.82382C6.77852 4.52781 6.69853 3.96789 6.99454 3.5732C7.29056 3.17852 7.85048 3.09853 8.24516 3.39454L9.67444 4.4665V0.8933C9.67444 0.399944 10.0744 0 10.5677 0C11.0611 0 11.461 0.399944 11.461 0.893301V4.4665L12.8903 3.39454C13.285 3.09853 13.8449 3.17852 14.1409 3.5732C14.437 3.96789 14.357 4.52781 13.9623 4.82382L10.92 7.10557Z" fill="white"/>
</svg>
