<svg width="25" height="26" viewBox="0 0 25 26" fill="none" xmlns="http://www.w3.org/2000/svg">
<path opacity="0.6" d="M2.54959 22.1488H0.5V20.1983H2.54959C4.53306 20.1983 6.35124 19.3058 7.54132 17.719L9.09504 18.9091C7.54132 20.9587 5.1281 22.1488 2.54959 22.1488ZM10.5165 6.47934L12.0702 7.66942C13.2603 6.1157 15.0785 5.2562 17.0289 5.2562H20.7645L18.8471 7.17355L20.2355 8.56198L24.5 4.29752L20.2355 0L18.8471 1.38843L20.7645 3.30579H16.9959C14.4504 3.30579 12.0702 4.46281 10.5165 6.47934ZM20.2355 25.4545L24.5 21.1901L20.2355 16.8926L18.8471 18.281L20.7645 20.1983H16.9959C13.5578 20.1983 10.7479 17.3884 10.7479 13.9504V11.2066C10.5826 6.84298 6.94628 3.33884 2.54959 3.33884H0.5V5.28926H2.54959C5.9876 5.28926 8.79752 8.09917 8.79752 11.5372V14.281C8.96281 18.6446 12.5992 22.1488 16.9959 22.1488H20.7645L18.8471 24.0661L20.2355 25.4545Z" fill="#061837"/>
</svg>
