<svg width="25" height="23" viewBox="0 0 25 23" fill="none" xmlns="http://www.w3.org/2000/svg">
<path d="M12.5012 2.03443C15.32 -0.495804 19.676 -0.411804 22.3911 2.30903C25.1064 5.02986 25.1996 9.3646 22.6743 12.1918L12.4999 22.3822L2.32565 12.1918C-0.199542 9.3646 -0.10515 5.02301 2.60883 2.30903C5.32588 -0.408024 9.67423 -0.49956 12.5012 2.03443ZM20.6924 4.00432C18.8935 2.20172 15.9891 2.12861 14.1044 3.82044L12.5023 5.25848L10.8993 3.82157C9.00917 2.12736 6.11007 2.20189 4.30588 4.00608C2.51819 5.79377 2.42845 8.65696 4.07591 10.548L12.4999 18.9854L20.9241 10.548C22.5722 8.65624 22.4828 5.7985 20.6924 4.00432Z" fill="#061837" fill-opacity="0.6"/>
</svg>
