<svg width="20" height="20" viewBox="0 0 20 20" fill="none" xmlns="http://www.w3.org/2000/svg">
<path d="M10.0015 7C8.34409 7 7.00147 8.3431 7.00147 10C7.00147 11.6573 8.34459 13 10.0015 13C11.6588 13 13.0015 11.6569 13.0015 10C13.0015 8.3427 11.6584 7 10.0015 7ZM10.0015 5C12.7619 5 15.0015 7.2371 15.0015 10C15.0015 12.7605 12.7644 15 10.0015 15C7.241 15 5.00146 12.7629 5.00146 10C5.00146 7.23953 7.23857 5 10.0015 5ZM16.5015 4.74915C16.5015 5.43926 15.9407 5.99917 15.2515 5.99917C14.5614 5.99917 14.0015 5.4384 14.0015 4.74915C14.0015 4.0599 14.5622 3.5 15.2515 3.5C15.9398 3.49913 16.5015 4.0599 16.5015 4.74915ZM10.0015 2C7.52699 2 7.12366 2.00655 5.97275 2.0578C5.18863 2.09461 4.66301 2.20007 4.17464 2.38967C3.74064 2.55799 3.42758 2.75898 3.09401 3.09255C2.75916 3.4274 2.55852 3.73963 2.39088 4.17383C2.20084 4.66332 2.09542 5.18811 2.05927 5.97115C2.00752 7.0752 2.00146 7.46105 2.00146 10C2.00146 12.4745 2.00802 12.8778 2.05926 14.0286C2.09609 14.8124 2.20168 15.3388 2.39082 15.826C2.55958 16.2606 2.76099 16.5744 3.09295 16.9064C3.42912 17.2421 3.74228 17.4434 4.17236 17.6094C4.66668 17.8005 5.19196 17.9061 5.9726 17.9422C7.07666 17.9939 7.46252 18 10.0015 18C12.476 18 12.8793 17.9934 14.0301 17.9422C14.8122 17.9055 15.339 17.7996 15.8275 17.6106C16.2609 17.4423 16.5757 17.2402 16.9079 16.9085C17.2441 16.5718 17.445 16.2594 17.6112 15.8283C17.8018 15.3358 17.9076 14.8098 17.9437 14.0289C17.9954 12.9248 18.0015 12.5389 18.0015 10C18.0015 7.52552 17.9949 7.12221 17.9437 5.97137C17.9069 5.18906 17.801 4.66149 17.6118 4.17318C17.4439 3.74038 17.2422 3.42635 16.9089 3.09255C16.5735 2.75715 16.2621 2.55693 15.8276 2.38942C15.3385 2.19954 14.8129 2.09396 14.0303 2.05781C12.9263 2.00605 12.5404 2 10.0015 2ZM10.0015 0C12.7181 0 13.0573 0.00999994 14.124 0.0599999C15.1881 0.10917 15.914 0.2775 16.5515 0.525C17.2106 0.77917 17.7673 1.1225 18.3231 1.67833C18.8781 2.23417 19.2215 2.7925 19.4765 3.45C19.7231 4.08667 19.8915 4.81333 19.9415 5.8775C19.989 6.94417 20.0015 7.28333 20.0015 10C20.0015 12.7167 19.9915 13.0558 19.9415 14.1225C19.8923 15.1867 19.7231 15.9125 19.4765 16.55C19.2223 17.2092 18.8781 17.7658 18.3231 18.3217C17.7673 18.8767 17.2081 19.22 16.5515 19.475C15.914 19.7217 15.1881 19.89 14.124 19.94C13.0573 19.9875 12.7181 20 10.0015 20C7.2848 20 6.94562 19.99 5.87896 19.94C4.8148 19.8908 4.0898 19.7217 3.45147 19.475C2.79313 19.2208 2.23563 18.8767 1.6798 18.3217C1.12397 17.7658 0.781465 17.2067 0.526465 16.55C0.278965 15.9125 0.111465 15.1867 0.061465 14.1225C0.013965 13.0558 0.00146484 12.7167 0.00146484 10C0.00146484 7.28333 0.011465 6.94417 0.061465 5.8775C0.110625 4.8125 0.278965 4.0875 0.526465 3.45C0.780625 2.79167 1.12397 2.23417 1.6798 1.67833C2.23563 1.1225 2.79397 0.78 3.45147 0.525C4.08896 0.2775 4.81396 0.11 5.87896 0.0599999C6.94562 0.0124999 7.2848 0 10.0015 0Z" fill="white"/>
</svg>
