<svg width="22" height="26" viewBox="0 0 22 26" fill="none" xmlns="http://www.w3.org/2000/svg">
<path opacity="0.4" d="M10.7696 22.6155L16.6925 16.6925C19.9637 13.4214 19.9637 8.11776 16.6925 4.8466C13.4214 1.57544 8.11776 1.57544 4.8466 4.8466C1.57544 8.11776 1.57544 13.4214 4.8466 16.6925L10.7696 22.6155ZM10.7696 26L3.15433 18.3848C-1.05144 14.179 -1.05144 7.36011 3.15433 3.15433C7.36011 -1.05144 14.179 -1.05144 18.3848 3.15433C22.5906 7.36011 22.5906 14.179 18.3848 18.3848L10.7696 26ZM10.7696 13.1628C12.0913 13.1628 13.1628 12.0913 13.1628 10.7696C13.1628 9.44781 12.0913 8.37633 10.7696 8.37633C9.44778 8.37633 8.37633 9.44781 8.37633 10.7696C8.37633 12.0913 9.44778 13.1628 10.7696 13.1628ZM10.7696 15.556C8.12607 15.556 5.98309 13.413 5.98309 10.7696C5.98309 8.12607 8.12607 5.98309 10.7696 5.98309C13.413 5.98309 15.556 8.12607 15.556 10.7696C15.556 13.413 13.413 15.556 10.7696 15.556Z" fill="#061837"/>
</svg>
