<svg width="17" height="12" viewBox="0 0 17 12" fill="none" xmlns="http://www.w3.org/2000/svg">
<path d="M12 3.9L15.91 1.16303C16.0796 1.04426 16.3135 1.08553 16.4322 1.2552C16.4763 1.31823 16.5 1.39331 16.5 1.47025V10.5298C16.5 10.7368 16.3321 10.9048 16.125 10.9048C16.048 10.9048 15.973 10.8811 15.91 10.837L12 8.1V11.25C12 11.6642 11.6642 12 11.25 12H0.75C0.33579 12 0 11.6642 0 11.25V0.75C0 0.33579 0.33579 0 0.75 0H11.25C11.6642 0 12 0.33579 12 0.75V3.9ZM12 6.26902L15 8.36903V3.63098L12 5.73098V6.26902ZM1.5 1.5V10.5H10.5V1.5H1.5Z" fill="white"/>
</svg>
