<svg width="25" height="20" viewBox="0 0 25 20" fill="none" xmlns="http://www.w3.org/2000/svg">
<path d="M12.8051 0C13.4728 0.00367521 15.1432 0.0198262 16.9181 0.0909177L17.5474 0.118356C19.3344 0.202961 21.1198 0.347495 22.0054 0.594409C23.1866 0.92624 24.115 1.89448 24.4288 3.12183C24.9284 5.0708 24.9909 8.87475 24.9987 9.7953L24.9998 9.98606V9.99944C24.9998 9.99944 24.9998 10.0041 24.9998 10.0129L24.9987 10.2037C24.9909 11.1243 24.9284 14.9282 24.4288 16.8772C24.1106 18.109 23.1822 19.0773 22.0054 19.4046C21.1198 19.6515 19.3344 19.796 17.5474 19.8806L16.9181 19.908C15.1432 19.9791 13.4728 19.9953 12.8051 19.999L12.5121 20H12.4991C12.4991 20 12.4947 20 12.4861 20L12.1933 19.999C10.7802 19.9913 4.87194 19.9274 2.99282 19.4046C1.81161 19.0727 0.883211 18.1045 0.569381 16.8772C0.0697656 14.9282 0.00731216 11.1243 -0.000488281 10.2037V9.7953C0.00731216 8.87475 0.0697656 5.0708 0.569381 3.12183C0.887562 1.88993 1.81596 0.921702 2.99282 0.594409C4.87194 0.0715417 10.7802 0.00777544 12.1933 0H12.8051ZM9.99896 5.62424V14.3747L17.4994 9.99944L9.99896 5.62424Z" fill="white"/>
</svg>
